<?xml version="1.0" encoding="utf-8"?>
<!-- Generator: Adobe Illustrator 25.4.1, SVG Export Plug-In . SVG Version: 6.00 Build 0)  -->
<svg version="1.1" id="Capa_1" xmlns="http://www.w3.org/2000/svg" xmlns:xlink="http://www.w3.org/1999/xlink" x="0px" y="0px"
	 viewBox="0 0 271.17 117.71" style="enable-background:new 0 0 271.17 117.71;" xml:space="preserve">
<style type="text/css">
	.st0{fill:none;stroke:#000000;stroke-width:2.3889;stroke-miterlimit:10;}
	.st1{fill:none;stroke:#000000;stroke-width:2.8829;stroke-miterlimit:10;}
	.st2{fill:none;stroke:#000000;stroke-width:2.7703;stroke-miterlimit:10;}
	.st3{fill:#903714;}
	.st4{fill:none;}
	.st5{fill:#FCC131;}
</style>
<g>
	<path d="M94.32,47.69c2.92,4.18,3.95,8.84,2.95,13.86c-1.6,8.07-7.11,12.7-14.34,15.63c-5.37,2.18-11.07,2.64-16.79,2.65
		c-1.91,0-2.44,0.62-2.4,2.48c0.15,5.76,0.07,11.53,0.24,17.3c0.03,1.05,0.62,2.28,1.34,3.08c2.23,2.48,4.65,4.79,6.98,7.19
		c0.44,0.45,0.82,0.96,1.49,1.77c-0.92,0.12-1.46,0.24-2,0.24c-8.19,0.04-16.38,0.01-24.57,0.15c-1.78,0.03-2.6-0.79-3.43-2.47
		c8.24,0,16.28,0,24.79,0c-1.7-1.95-2.69-3.49-5.4-3.34c-6.27,0.33-12.58,0.14-18.87,0.15c-0.49,0-0.98-0.1-1.96-0.21
		c1.66-1.63,2.95-3.07,4.42-4.29c1.27-1.06,1.77-2.24,1.75-3.89c-0.15-13.89-0.08-27.78-0.33-41.67c-0.03-1.69-0.06-4.41,0-7.8
		c-1.79,0-3.59,0-5.38,0c-4.68,0.02-8.14,0.05-9.86,0c-0.42-0.01-1.47-0.05-2,0.6c-0.36,0.44-0.33,1.02-0.33,1.21
		c0.08,6.16,0.05,12.32,0.15,18.48c0.01,0.76,0.42,1.63,0.91,2.24c2.02,2.5,4.14,4.91,6.21,7.36c0.41,0.48,0.75,1.02,1.3,1.79
		c-0.79,0.13-1.26,0.27-1.74,0.28c-7.8,0.09-15.6,0.14-23.39,0.25c-1.73,0.03-2.89-0.54-3.44-2.59c7.92,0,15.71,0,23.96,0
		c-1.28-1.61-1.73-2.75-4.02-2.62c-6.79,0.4-13.62,0.18-20.44,0.19c-0.23,0-0.47-0.14-1.24-0.39c1.88-1.76,3.55-3.25,5.11-4.85
		c0.49-0.5,0.98-1.28,0.99-1.93c0.04-6.88-0.02-13.76-0.07-20.64c0-0.25-0.11-0.49-0.3-1.3c-2.43,1.18-4.7,2.29-7.17,3.49
		c1.24-3.64,4.3-4.89,7.31-6.26c-3.63-0.54-5.95,1.79-8.43,3.75c-0.19-0.09-0.38-0.19-0.56-0.28c0.46-1.24,0.76-2.58,1.42-3.71
		c1.4-2.41,3.62-3.94,6.15-4.99c1.23-0.51,1.61-1.26,1.58-2.56c-0.13-6.68-0.21-13.36-0.2-20.05c0-1.47-0.56-2.45-1.59-3.38
		c-1.64-1.47-3.19-3.04-4.78-4.57c0.08-0.18,0.17-0.36,0.25-0.54c7.77,0,15.53,0,23.78,0c-1.67,1.85-3.01,3.58-4.61,5.05
		c-1.6,1.47-2.03,3.08-1.95,5.22c0.23,5.76,0.19,11.53,0.26,17.29c0,0.26-0.09,0.56,0.01,0.78c0.27,0.57,0.61,1.09,0.93,1.63
		c0.33-0.53,0.93-1.04,0.95-1.58c0.08-2.55,0.01-5.11-0.02-7.67c-0.04-3.41-0.01-6.82-0.19-10.22c-0.11-2.13,0.37-3.82,2.08-5.19
		c1.99-1.59,2.02-2.52,2.96-2.86c0.62-0.23,1.18-0.23,1.51-0.2c0.15,0.43,0.3,1.09-0.02,1.63c-0.14,0.25-0.33,0.38-0.4,0.42
		c-1.01,0.72-2.01,1.55-2.68,2.6c-1.26,1.97-1.5,4.36-1.3,7.04c0.36,4.76,0.29,9.56,0.34,14.34c0.01,1.3,0.54,1.71,1.77,1.69
		c4.72-0.08,9.44-0.15,14.16-0.15c1.43,0,1.95-0.55,1.94-1.98c-0.05-6.62,0.04-13.24-0.08-19.85c-0.02-1.11-0.68-2.34-1.37-3.27
		C45.47,10.6,44,9.18,42.2,7.2c8.08,0,15.62,0,23.69,0c-1.46,1.58-2.59,3.07-3.99,4.24c-1.88,1.57-2.48,3.38-2.41,5.82
		c0.19,5.83,0.05,11.66,0.08,17.5c0,0.7,0.18,1.39,0.28,2.09c0.21-0.01,0.41-0.02,0.62-0.03c0.05-0.66,0.15-1.33,0.15-1.99
		c-0.02-6.03-0.01-12.06-0.12-18.09c-0.03-1.63,0.39-2.91,1.58-4.02c1.1-1.03,2.14-2.13,3.14-3.24c0.94-1.04,1.74-0.96,2.74,0.33
		c-1.31,1.31-2.73,2.55-3.9,3.99c-0.68,0.84-1.33,2.01-1.34,3.03c-0.03,6.16,0.16,12.32,0.19,18.48c0.01,1.46,0.67,1.59,1.9,1.74
		c5.25,0.64,10.61,0.95,15.7,2.27c10.28,2.69,16.11,13.9,12.72,23.47c-2.28,6.42-7.4,9.69-13.52,11.09
		c-5.77,1.33-11.75,1.78-17.66,2.45c-2.51,0.28-2.52,0.08-2.53,2.68c-0.01,6.62,0,13.24-0.08,19.85c-0.02,1.59,0.61,2.55,2.22,3.35
		c0-0.9,0-1.59,0-2.28c0-6.88,0.04-13.76-0.04-20.64c-0.02-1.59,0.24-2.19,2.04-2.04c6.66,0.55,13.19-0.03,19.51-2.48
		c9.3-3.61,13.88-11.88,11.83-21.69c-0.37-1.76-0.81-3.51-1.22-5.27C93.94,47.78,94.13,47.73,94.32,47.69z M81.07,53.99
		c-1.51-1.19-2.55-2.15-3.73-2.9c-4.01-2.55-8.49-2.39-12.95-1.91c-0.5,0.05-1.26,1.1-1.26,1.69c-0.06,5.96,0.03,11.93,0.02,17.89
		c0,1.17,0.38,1.74,1.59,1.59c3.11-0.38,6.29-0.47,9.31-1.2c5.09-1.22,7.94-5.03,8.44-10.58c0.46-4.99-2.31-10.3-6.51-12.3
		c-4.91-2.34-10.18-2.2-15.43-1.94c-0.39,0.02-1.05,1.04-1.05,1.59c-0.03,7.6,0.01,15.2,0.09,22.81c0.01,0.55,0.37,1.11,0.56,1.66
		c0.19-0.05,0.39-0.09,0.58-0.14c0.07-0.48,0.19-0.96,0.19-1.44c0.02-5.44-0.01-10.88,0.05-16.32c0.07-6.29-0.93-5.4,5.5-5.88
		c3.82-0.28,7.61,0.24,10.99,2.3C79.2,49.97,80.54,51.38,81.07,53.99z M48.19,44.61c-11.42,0-19.71,0.01-20.83,0
		c-0.17,0-0.65-0.02-0.96,0.3c-0.31,0.32-0.29,0.86-0.29,1.42c-0.01,7.2,0.01,14.39-0.05,21.59c-0.01,1.6,0.72,2.48,2.3,3.19
		c0-0.93,0-1.64,0-2.35c0-6.93,0.06-13.87-0.02-20.8c0-0.35-0.11-1.34,0.47-1.82c0.44-0.36,1.04-0.27,1.81-0.21
		c1.12,0.09,2.24-0.05,3.36,0.04c1.08,0.1,1.05,0.02,6.98-0.01c1.7-0.01,4.17-0.01,7.23,0C48.19,45.51,48.19,45.06,48.19,44.61z"/>
	<line class="st0" x1="131.8" y1="20.54" x2="264.74" y2="20.54"/>
	<line class="st0" x1="131.8" y1="25.41" x2="264.74" y2="25.41"/>
	<g>
		<line class="st1" x1="71.01" y1="90.85" x2="264.61" y2="90.85"/>
		<line class="st1" x1="71.01" y1="95.72" x2="264.61" y2="95.72"/>
	</g>
	<g>
		<line class="st2" x1="10.16" y1="90.85" x2="38.6" y2="90.85"/>
		<line class="st2" x1="10.16" y1="95.72" x2="38.6" y2="95.72"/>
	</g>
	<g>
		<g>
			<path class="st3" d="M81.33,33.82c-2.42,0-4.27-0.71-5.54-2.14c-1.27-1.42-1.91-3.53-1.91-6.33c0-1.92,0.33-3.54,1-4.87
				c0.67-1.33,1.58-2.31,2.75-2.96c1.16-0.65,2.49-0.97,3.98-0.97c2.49,0,4.38,0.72,5.66,2.17c1.28,1.45,1.92,3.53,1.92,6.24
				c0,1.93-0.32,3.56-0.96,4.89c-0.64,1.33-1.55,2.32-2.72,2.98C84.33,33.49,82.94,33.82,81.33,33.82z M77.18,24.99
				c0,2.4,0.38,4.24,1.14,5.52c0.76,1.29,1.85,1.93,3.27,1.93c0.78,0,1.44-0.19,1.99-0.57c0.55-0.38,0.99-0.89,1.33-1.53
				c0.34-0.64,0.59-1.38,0.74-2.23c0.15-0.84,0.23-1.72,0.23-2.64c0-1.71-0.19-3.13-0.57-4.26c-0.38-1.13-0.89-1.96-1.54-2.49
				c-0.65-0.53-1.4-0.79-2.23-0.79c-1.41,0-2.49,0.61-3.24,1.83C77.55,20.99,77.18,22.73,77.18,24.99z"/>
			<path class="st3" d="M91.66,17.73c0.58-0.09,1.05-0.26,1.41-0.49c0.36-0.23,0.64-0.53,0.85-0.9c0.2-0.37,0.36-0.83,0.48-1.38
				s0.24-1.36,0.37-2.42h2.48v4.31h5.64v1.76h-5.64v7.77c0,1.13,0.05,2.03,0.14,2.7c0.09,0.67,0.27,1.19,0.52,1.57
				s0.55,0.65,0.87,0.81c0.33,0.16,0.75,0.24,1.26,0.24c0.47,0,0.9-0.1,1.31-0.29c0.41-0.19,0.81-0.47,1.2-0.83l0.79,0.94
				c-0.83,0.8-1.61,1.38-2.35,1.75c-0.74,0.36-1.5,0.54-2.29,0.54c-1.5,0-2.62-0.45-3.35-1.33c-0.73-0.89-1.1-2.28-1.1-4.18v-9.69
				h-2.58V17.73z"/>
			<path class="st3" d="M118.44,30.58c-0.75,0.78-1.43,1.39-2.05,1.83c-0.62,0.44-1.31,0.79-2.05,1.04
				c-0.75,0.25-1.57,0.38-2.46,0.38c-2.4,0-4.21-0.72-5.43-2.16c-1.22-1.44-1.83-3.56-1.83-6.36c0-1.73,0.31-3.26,0.93-4.59
				c0.62-1.33,1.51-2.35,2.66-3.07s2.48-1.08,3.98-1.08c1.18,0,2.18,0.19,3,0.56s1.49,0.88,1.98,1.53s0.88,1.46,1.15,2.44
				s0.43,2.27,0.46,3.85h-11v0.31c0,1.37,0.15,2.53,0.46,3.46c0.31,0.94,0.81,1.67,1.52,2.2s1.62,0.79,2.75,0.79
				c0.95,0,1.81-0.18,2.57-0.53c0.76-0.35,1.52-0.93,2.28-1.74L118.44,30.58z M115.51,23.49c-0.07-1.26-0.23-2.28-0.47-3.08
				c-0.25-0.8-0.61-1.41-1.1-1.83c-0.49-0.42-1.13-0.64-1.92-0.64c-1.2,0-2.16,0.48-2.87,1.44s-1.14,2.33-1.27,4.11H115.51z"/>
			<path class="st3" d="M126.59,29.18c0,1,0.05,1.7,0.14,2.08c0.09,0.39,0.27,0.69,0.53,0.89c0.26,0.2,0.69,0.38,1.28,0.53v0.86
				h-6.93v-0.86c0.58-0.15,0.99-0.31,1.21-0.47c0.23-0.16,0.39-0.36,0.49-0.58c0.1-0.23,0.17-0.54,0.21-0.92
				c0.04-0.39,0.06-0.9,0.06-1.53V14.57c0-1.12-0.01-1.9-0.03-2.34c-0.02-0.44-0.06-0.82-0.14-1.12c-0.08-0.31-0.18-0.55-0.31-0.72
				s-0.31-0.31-0.54-0.42c-0.23-0.1-0.64-0.21-1.23-0.31V8.74l4.21-0.17h1.05V29.18z"/>
		</g>
	</g>
	<g>
		<path class="st3" d="M106.23,71.95c0.59-0.18,1.01-0.34,1.26-0.48s0.46-0.33,0.64-0.57c0.17-0.24,0.31-0.61,0.41-1.11
			s0.15-1.28,0.15-2.34v-9.92c0-0.97-0.02-1.75-0.04-2.34c-0.03-0.59-0.14-1.06-0.32-1.42c-0.18-0.36-0.46-0.62-0.83-0.8
			c-0.37-0.17-0.9-0.32-1.58-0.44v-1.21l5.3-0.21h1.39v16.26c0,1.3,0.06,2.21,0.18,2.72c0.12,0.51,0.35,0.89,0.69,1.16
			c0.34,0.27,0.9,0.5,1.67,0.69v1.11h-8.91V71.95z M112.74,42.42v4.41h-4.18v-4.41H112.74z"/>
		<path class="st3" d="M132.32,69.82l-0.34-0.09c-1.32,1.35-2.56,2.3-3.72,2.87c-1.16,0.56-2.39,0.84-3.7,0.84
			c-1.15,0-2.17-0.22-3.05-0.67c-0.88-0.45-1.55-1.08-2.02-1.89c-0.47-0.81-0.7-1.75-0.7-2.81c0-2.21,1.09-3.92,3.29-5.13
			s5.48-1.91,9.86-2.1v-1.48c0-1.58-0.15-2.82-0.46-3.73c-0.3-0.91-0.78-1.58-1.43-2c-0.65-0.42-1.52-0.64-2.62-0.64
			c-1.18,0-2.13,0.31-2.85,0.93c-0.72,0.62-1.26,1.55-1.63,2.8h-2.98v-2.96c1.46-0.76,2.67-1.31,3.64-1.67
			c0.97-0.36,1.94-0.64,2.91-0.84c0.97-0.2,1.96-0.31,2.96-0.31c1.5,0,2.71,0.24,3.62,0.72c0.91,0.48,1.59,1.21,2.05,2.19
			c0.46,0.99,0.68,2.47,0.68,4.46v7.91c0,1.12,0.01,1.91,0.02,2.38c0.01,0.46,0.06,0.89,0.14,1.28c0.08,0.39,0.19,0.71,0.34,0.94
			c0.15,0.24,0.38,0.44,0.67,0.6c0.3,0.17,0.78,0.34,1.44,0.52v1.11h-6.23L132.32,69.82z M131.93,62.7
			c-3.08,0.03-5.38,0.44-6.91,1.23c-1.53,0.79-2.3,1.98-2.3,3.57c0,0.86,0.17,1.55,0.52,2.05s0.79,0.84,1.32,1.03
			c0.53,0.19,1.16,0.28,1.89,0.28c1.03,0,1.97-0.25,2.81-0.75c0.84-0.5,1.5-1.14,1.97-1.91s0.71-1.54,0.71-2.3V62.7z"/>
		<path class="st3" d="M148.05,54.83l0.32,0.09c0.91-0.91,1.66-1.6,2.24-2.06c0.58-0.46,1.15-0.83,1.69-1.11
			c0.54-0.28,1.06-0.48,1.53-0.6c0.48-0.12,0.97-0.18,1.47-0.18c1.52,0,2.75,0.35,3.71,1.05s1.61,1.77,1.98,3.21
			c1.14-1.15,2.06-2,2.76-2.55c0.71-0.54,1.42-0.97,2.16-1.26c0.73-0.3,1.53-0.44,2.38-0.44c1.02,0,1.89,0.15,2.63,0.44
			s1.36,0.75,1.87,1.36c0.51,0.61,0.88,1.38,1.11,2.31c0.23,0.92,0.35,2.17,0.35,3.73v8.57c0,1.15,0.04,1.95,0.11,2.39
			c0.08,0.44,0.19,0.78,0.33,1.02c0.14,0.24,0.36,0.45,0.65,0.62s0.77,0.35,1.46,0.53v1.11h-8.94v-1.11
			c0.59-0.18,1.02-0.34,1.27-0.48s0.47-0.33,0.65-0.57c0.17-0.24,0.31-0.62,0.41-1.13c0.1-0.51,0.15-1.28,0.15-2.31v-5.96
			c0-1.29-0.03-2.35-0.1-3.19c-0.07-0.84-0.17-1.51-0.32-2.01c-0.14-0.5-0.32-0.89-0.52-1.18c-0.2-0.29-0.44-0.54-0.69-0.75
			s-0.56-0.38-0.91-0.5c-0.35-0.12-0.81-0.18-1.39-0.18c-0.61,0-1.17,0.12-1.69,0.36c-0.52,0.24-1.09,0.65-1.71,1.23
			s-1.06,1.16-1.33,1.74c-0.27,0.58-0.41,1.27-0.41,2.06v8.3c0,1.15,0.04,1.95,0.11,2.39s0.19,0.78,0.33,1.02
			c0.14,0.24,0.36,0.45,0.65,0.62s0.77,0.35,1.46,0.53v1.11h-8.94v-1.11c0.59-0.18,1.02-0.34,1.27-0.48
			c0.26-0.14,0.47-0.33,0.65-0.57c0.17-0.24,0.31-0.62,0.41-1.13c0.1-0.51,0.15-1.28,0.15-2.31v-5.96c0-1.35-0.04-2.45-0.11-3.3
			c-0.08-0.85-0.19-1.53-0.35-2.05c-0.16-0.51-0.36-0.93-0.61-1.25s-0.5-0.56-0.76-0.73c-0.26-0.17-0.56-0.29-0.91-0.38
			c-0.35-0.08-0.74-0.12-1.18-0.12c-0.62,0-1.21,0.14-1.75,0.42c-0.55,0.28-1.1,0.69-1.67,1.22s-1,1.08-1.28,1.66
			c-0.29,0.58-0.43,1.2-0.43,1.86v8.53c0,0.86,0.02,1.52,0.07,1.98c0.05,0.45,0.12,0.81,0.22,1.07s0.22,0.47,0.38,0.62
			s0.37,0.31,0.65,0.46c0.28,0.14,0.7,0.29,1.26,0.44v1.11h-8.91v-1.11c0.58-0.18,0.99-0.34,1.24-0.48s0.47-0.33,0.65-0.57
			c0.18-0.24,0.32-0.61,0.41-1.11c0.09-0.5,0.14-1.28,0.14-2.34v-9.92c0-0.97-0.02-1.75-0.04-2.34c-0.03-0.59-0.14-1.06-0.32-1.42
			c-0.18-0.36-0.46-0.62-0.83-0.8c-0.37-0.17-0.9-0.32-1.58-0.44v-1.21l5.32-0.21h1.39L148.05,54.83z"/>
		<path class="st3" d="M190.55,73.43c-3.15,0-5.56-0.93-7.22-2.79c-1.66-1.86-2.49-4.6-2.49-8.24c0-2.5,0.44-4.62,1.31-6.34
			s2.07-3.01,3.58-3.85c1.52-0.84,3.24-1.26,5.18-1.26c3.24,0,5.7,0.94,7.37,2.83c1.67,1.89,2.5,4.6,2.5,8.13
			c0,2.52-0.42,4.64-1.25,6.37s-2.02,3.02-3.55,3.88C194.46,73,192.64,73.43,190.55,73.43z M185.14,61.93c0,3.12,0.5,5.52,1.49,7.2
			c0.99,1.68,2.41,2.51,4.26,2.51c1.02,0,1.88-0.25,2.59-0.74c0.71-0.49,1.29-1.16,1.74-1.99c0.45-0.83,0.77-1.8,0.96-2.9
			c0.2-1.1,0.3-2.25,0.3-3.45c0-2.23-0.25-4.08-0.74-5.55s-1.16-2.55-2.01-3.24s-1.82-1.04-2.91-1.04c-1.83,0-3.24,0.8-4.22,2.39
			S185.14,58.99,185.14,61.93z"/>
		<path class="st3" d="M227.52,73.07h-8.96v-1.11c0.59-0.18,1.02-0.34,1.27-0.48s0.47-0.33,0.65-0.57c0.17-0.24,0.31-0.62,0.41-1.13
			c0.1-0.51,0.15-1.28,0.15-2.31v-5.96c0-1.06-0.03-2.02-0.09-2.89s-0.16-1.57-0.31-2.13c-0.14-0.55-0.32-0.99-0.52-1.3
			c-0.21-0.31-0.45-0.58-0.73-0.8c-0.28-0.22-0.6-0.39-0.97-0.52c-0.36-0.13-0.84-0.19-1.43-0.19c-0.59,0-1.15,0.12-1.68,0.35
			c-0.53,0.24-1.11,0.64-1.75,1.22s-1.1,1.14-1.39,1.71c-0.29,0.56-0.43,1.21-0.43,1.93v8.48c0,1.3,0.06,2.21,0.18,2.72
			c0.12,0.51,0.35,0.89,0.69,1.16s0.9,0.5,1.67,0.69v1.11h-8.91v-1.11c0.59-0.18,1.01-0.34,1.26-0.48s0.46-0.33,0.64-0.57
			c0.17-0.24,0.31-0.61,0.41-1.11s0.15-1.28,0.15-2.34v-9.92c0-0.97-0.01-1.75-0.04-2.34c-0.03-0.59-0.14-1.06-0.32-1.42
			s-0.46-0.62-0.83-0.8c-0.37-0.17-0.9-0.32-1.58-0.44v-1.21l5.32-0.21h1.39l-0.25,3.71l0.32,0.09c1.12-1.14,2.03-1.95,2.72-2.43
			c0.69-0.48,1.39-0.86,2.09-1.12c0.71-0.27,1.45-0.4,2.24-0.4c0.82,0,1.55,0.09,2.19,0.28c0.64,0.19,1.21,0.48,1.71,0.88
			s0.9,0.88,1.22,1.47c0.32,0.58,0.56,1.28,0.72,2.1c0.16,0.82,0.24,1.86,0.24,3.12v8.57c0,1.05,0.03,1.8,0.09,2.27
			c0.06,0.47,0.17,0.83,0.32,1.09s0.37,0.47,0.66,0.65c0.29,0.17,0.79,0.36,1.5,0.56V73.07z"/>
		<path class="st3" d="M230,52.47c0.76-0.12,1.37-0.33,1.84-0.64c0.47-0.3,0.84-0.69,1.1-1.17c0.26-0.48,0.47-1.08,0.62-1.8
			c0.15-0.72,0.31-1.77,0.48-3.15h3.23v5.62h7.34v2.3h-7.34v10.12c0,1.47,0.06,2.64,0.18,3.51s0.35,1.55,0.68,2.05
			c0.33,0.49,0.71,0.85,1.14,1.06c0.42,0.21,0.97,0.32,1.64,0.32c0.61,0,1.17-0.12,1.71-0.38c0.53-0.25,1.05-0.61,1.57-1.08
			l1.02,1.23c-1.08,1.05-2.1,1.8-3.06,2.27s-1.96,0.71-2.99,0.71c-1.96,0-3.41-0.58-4.37-1.74c-0.96-1.16-1.43-2.97-1.43-5.45V53.63
			H230V52.47z"/>
		<path class="st3" d="M264.88,69.2c-0.97,1.02-1.86,1.81-2.67,2.39c-0.81,0.58-1.7,1.03-2.67,1.35c-0.97,0.33-2.04,0.49-3.21,0.49
			c-3.12,0-5.48-0.94-7.07-2.81c-1.59-1.87-2.39-4.63-2.39-8.29c0-2.26,0.41-4.25,1.22-5.98c0.81-1.73,1.97-3.06,3.47-4
			c1.5-0.94,3.23-1.41,5.18-1.41c1.53,0,2.83,0.24,3.91,0.73s1.94,1.15,2.58,1.99c0.64,0.84,1.14,1.9,1.5,3.18
			c0.36,1.28,0.56,2.95,0.6,5.01h-14.33v0.41c0,1.79,0.2,3.29,0.6,4.51c0.4,1.22,1.06,2.17,1.98,2.87c0.92,0.69,2.11,1.03,3.58,1.03
			c1.24,0,2.36-0.23,3.35-0.69c0.99-0.46,1.98-1.22,2.97-2.26L264.88,69.2z M261.06,59.97c-0.09-1.64-0.29-2.97-0.61-4.01
			c-0.32-1.04-0.8-1.83-1.43-2.39c-0.64-0.55-1.47-0.83-2.5-0.83c-1.56,0-2.81,0.63-3.74,1.88c-0.93,1.25-1.48,3.04-1.65,5.36
			H261.06z"/>
	</g>
</g>
</svg>
